<svg id="Layer_1" enable-background="new 0 0 511.919 511.919" height="512" viewBox="0 0 511.919 511.919" width="512" xmlns="http://www.w3.org/2000/svg"><g><path d="m379.92 465.855v-113.933c0-6.784 3.476-13.094 9.209-16.719l84.174-53.228c20.217-12.785 26.242-39.538 13.458-59.755-12.785-20.217-39.538-26.243-59.755-13.458l-35.64 22.538c-4.967 3.141-11.446-.428-11.446-6.304v-69.518c0-18.999-4.264-36.909-9.645-54.031-2.718-8.647-78.208-31.627-145.077-31.627l8.746 20.553c-79.216 0-163.572 44.154-163.75 45.469-.867 6.424-1.228 12.985-1.228 19.637v295.53z" fill="#ff0100"/><path d="m486.761 222.219c-12.785-20.217-39.538-26.242-59.755-13.458l-35.64 22.538c-4.966 3.141-11.446-.428-11.446-6.304v-69.518c0-18.999-4.264-36.909-9.645-54.031-2.711-8.627-77.861-31.52-144.615-31.625v1.083l8.284 19.467c-2.756 0-5.519.059-8.284.162v367.956l154.26 7.366v-113.933c0-6.784 3.476-13.094 9.209-16.719l84.174-53.228c20.217-12.785 26.242-39.538 13.458-59.756z" fill="#b40000"/><g><path d="m126.484 162.215v26.049c0 20.122 16.312 36.434 36.434 36.434 20.122 0 36.434-16.312 36.434-36.434v-52.422c0-18.205 14.758-32.963 32.963-32.963 18.205 0 32.963 14.758 32.963 32.963v20.45c0 17.704 14.352 32.056 32.056 32.056 17.704 0 32.056-14.352 32.056-32.056v-28.472c0-14.566 11.808-26.373 26.373-26.373h14.513c-21.956-59.232-78.959-101.447-145.826-101.447-79.217 0-144.595 59.244-154.248 135.842h29.908c14.566 0 26.374 11.807 26.374 26.373z" fill="#fff5f5"/></g><path d="m225.659 0v103.539c2.15-.441 4.375-.672 6.655-.672 18.205 0 32.963 14.758 32.963 32.963v20.45c0 17.704 14.352 32.056 32.056 32.056 17.704 0 32.055-14.352 32.055-32.056v-28.472c0-14.566 11.808-26.373 26.373-26.373h14.513c-21.821-58.874-78.271-100.929-144.615-101.435z" fill="#ebebf0"/><path d="m435.243 457.031c0-26.041-20.545-47.277-46.309-48.4-7.715-4.137-16.531-6.489-25.898-6.489-12.851 0-24.661 4.428-34.014 11.826-6.654-3.438-14.199-5.391-22.204-5.391-2.574 0-5.1.205-7.566.592-7.942-4.467-17.101-7.027-26.862-7.027-11.103 0-21.429 3.307-30.066 8.975-4.862-1.639-10.063-2.54-15.478-2.54-5.307 0-10.409.865-15.188 2.442-8.607-5.607-18.875-8.877-29.913-8.877-9.804 0-19 2.583-26.967 7.087-2.573-.422-5.211-.652-7.904-.652-7.898 0-15.348 1.902-21.936 5.254-9.325-7.315-21.068-11.689-33.839-11.689-9.358 0-18.165 2.348-25.875 6.477-25.981.886-46.775 22.214-46.775 48.411s20.794 47.525 46.775 48.411c7.71 4.13 16.517 6.477 25.875 6.477 12.771 0 24.514-4.374 33.839-11.689 6.588 3.352 14.038 5.254 21.936 5.254 2.693 0 5.331-.23 7.904-.652 7.966 4.504 17.162 7.087 26.967 7.087 11.038 0 21.307-3.27 29.913-8.877 4.779 1.577 9.881 2.442 15.188 2.442 5.415 0 10.616-.902 15.478-2.54 8.638 5.668 18.963 8.975 30.066 8.975 9.761 0 18.92-2.559 26.862-7.026 2.466.387 4.991.591 7.566.591 8.006 0 15.551-1.954 22.204-5.391 9.353 7.398 21.163 11.826 34.014 11.826 9.367 0 18.183-2.352 25.898-6.489 25.764-1.122 46.309-22.357 46.309-48.398z" fill="#e6fbff"/><path d="m388.934 408.631c-7.716-4.137-16.531-6.489-25.898-6.489-12.851 0-24.661 4.428-34.014 11.826-6.654-3.438-14.199-5.391-22.204-5.391-2.574 0-5.1.205-7.566.592-7.942-4.467-17.101-7.027-26.862-7.027-11.103 0-21.429 3.307-30.067 8.975-4.862-1.639-10.063-2.54-15.478-2.54-.397 0-.791.015-1.186.024v96.859c.395.01.789.024 1.186.024 5.415 0 10.616-.902 15.478-2.54 8.638 5.668 18.963 8.975 30.067 8.975 9.761 0 18.92-2.559 26.862-7.026 2.466.387 4.991.591 7.566.591 8.006 0 15.551-1.953 22.204-5.391 9.353 7.398 21.163 11.826 34.014 11.826 9.367 0 18.183-2.352 25.898-6.489 25.764-1.123 46.309-22.358 46.309-48.399s-20.545-47.277-46.309-48.4z" fill="#c6e8ff"/></g></svg>